<svg id="Layer_1" data-name="Layer 1" xmlns="http://www.w3.org/2000/svg" viewBox="0 0 48 48"><defs><style>.cls-1{fill:none;stroke:#fff;stroke-linecap:round;stroke-miterlimit:10;stroke-width:1.5px;}</style></defs><title>Chat iconArtboard 2</title><path class="cls-1" d="M22.85,6.82C11.48,6.34,2,11.4,1.74,18.13,1.56,22.26,4.88,26,10.08,28.48l1,11.49,5.58-9.39a34.1,34.1,0,0,0,5.1.61c11.37.48,20.82-4.58,21.11-11.31S34.22,7.31,22.85,6.82Z"/><path class="cls-1" d="M43.93,24.61a5.4,5.4,0,0,1,2.33,4c.08,2.39-1.86,4.56-4.89,5.94l-.67,6.65-3.18-5.46a19.73,19.73,0,0,1-3,.33A15.8,15.8,0,0,1,25,33.6"/></svg>